<svg width="61" height="62" viewBox="0 0 61 62" fill="none" xmlns="http://www.w3.org/2000/svg">
<path d="M11.3547 0.204234C10.4926 0.309242 9.20996 0.582262 8.51606 0.834281C5.27786 1.98937 2.01863 5.51764 0.567746 9.42394C0.189255 10.432 0.126173 11.1881 0.0420642 15.7664C-0.0630723 22.1719 0.0630914 22.55 1.80836 21.1638C3.59568 19.7357 5.57224 18.6647 7.48572 18.0976C8.6212 17.7616 10.5767 17.7196 29.4382 17.6146L50.1501 17.5096L51.6851 16.9425C53.7458 16.1865 55.0494 15.3254 56.6475 13.6033C58.7923 11.2931 59.9909 8.33186 60.7689 3.50149C61.1263 1.35932 60.9791 0.897286 59.8647 0.393247C59.0026 -0.00578331 58.2035 -0.0267836 35.9567 0.0152196C23.2982 0.0152196 12.2169 0.099226 11.3547 0.204234Z" fill="#171719"/>
<path d="M9.04172 24.2091C5.21476 24.9232 2.03964 27.7164 0.69389 31.5807C0.147181 33.1978 0.126153 33.4498 0.0420442 38.2592C-0.0210377 43.0896 0.0420442 43.8666 0.609781 43.8666C0.69389 43.8666 1.26163 43.4886 1.89245 43.0056C3.06997 42.1235 4.45778 41.3464 5.97174 40.7584C6.72872 40.4434 8.68426 40.4014 21.8684 40.2964C38.4799 40.1704 37.6809 40.2334 40.4355 38.7842C41.9494 37.9652 44.1573 35.676 44.9984 34.0169C46.0918 31.8537 47.2904 26.4983 46.996 25.1542C46.7016 23.8521 47.6689 23.9151 28.1766 23.9361C15.3289 23.9571 10.03 24.0201 9.04172 24.2091Z" fill="#171719"/>
<path d="M8.55811 46.1768C4.81525 46.6598 1.70321 49.306 0.420546 53.0863C0.0630819 54.1574 0 54.8925 0 57.8327V61.298L0.588764 61.529C0.967255 61.676 2.96485 61.718 6.51846 61.655C12.5112 61.55 13.4364 61.382 15.7705 60.1009C20.5226 57.5177 22.9197 53.7164 22.9197 48.781C22.9197 45.9038 23.3613 46.0718 15.8966 46.0508C12.5323 46.0298 9.23098 46.0928 8.55811 46.1768Z" fill="#171719"/>
</svg>
